# xmcd
#
# Track frame offsets:
#	150
#	18845
#	34775
#	51538
#	68395
#	80199
#	98966
#	114371
#	125470
#	147380
#
# Disc length: 2234 seconds
#
# Revision: 1
# Processed by: cddbd v1.5.2PL0 Copyright (c) Steve Scherf et al.
# Submitted via: EasyCDDAExtractor 10.2.0.1
#
DISCID=8608b80a
DTITLE=Mark Knopfler - The Booze Brothers By Brew
DYEAR=1989
DGENRE=Blues
TTITLE0=Where Are You Tonight
TTITLE1=Roller Coaster
TTITLE2=You Make Me Feel So Good
TTITLE3=My Old Lady
TTITLE4=Sugar Baby
TTITLE5=Rock Steady Woman
TTITLE6=Louise
TTITLE7=What's The Time
TTITLE8=Midnight Special
TTITLE9=Dreaming
EXTD=YEAR: 1999
EXTT0=
EXTT1=
EXTT2=
EXTT3=
EXTT4=
EXTT5=
EXTT6=
EXTT7=
EXTT8=
EXTT9=
PLAYORDER=
